<svg width="100" height="100" viewBox="0 0 100 100" fill="none" xmlns="http://www.w3.org/2000/svg">
<g clip-path="url(#clip0_811_435)">
<path d="M83.7326 37.5C89.6701 37.5 100 43.1641 100 50C100 57.0312 89.6701 62.5 83.7326 62.5H63.4896L46.0417 96.8555C45.0521 98.8086 43.2118 100 41.2153 100H31.4583C29.6181 100 28.2812 98.0078 28.7847 96.0156L37.2917 62.5H19.4444L11.9444 73.75C11.4236 74.5312 10.5903 75 9.72222 75H2.43056C1.07639 75 0 73.7695 0 72.2656C0 72.0117 0.0347222 71.7578 0.0868056 71.5039L5.55556 50L0.0868056 28.4961C0.0173611 28.2422 0 27.9883 0 27.7344C0 26.2109 1.09375 25 2.43056 25H9.72222C10.5903 25 11.4236 25.4687 11.9444 26.25L19.4444 37.5H37.309L28.8021 3.98438C28.2812 1.99219 29.6181 0 31.4583 0H41.2153C43.2118 0 45.0521 1.21094 46.0417 3.14453L63.4896 37.5H83.7326Z" fill="#FF9900"/>
</g>
<defs>
<clipPath id="clip0_811_435">
<rect width="100" height="100" fill="white"/>
</clipPath>
</defs>
</svg>
