<svg width="22" height="30" viewBox="0 0 22 30" fill="none" xmlns="http://www.w3.org/2000/svg">
<path fill-rule="evenodd" clip-rule="evenodd" d="M0.5 10.5C0.5 4.695 5.195 0 11 0C16.805 0 21.5 4.695 21.5 10.5C21.5 18.375 11 30 11 30C11 30 0.5 18.375 0.5 10.5ZM11 3C6.86 3 3.5 6.36 3.5 10.5C3.5 14.775 7.88 21.315 11 25.32C14.18 21.285 18.5 14.82 18.5 10.5C18.5 6.36 15.14 3 11 3ZM14.75 10.5C14.75 12.5711 13.0711 14.25 11 14.25C8.92893 14.25 7.25 12.5711 7.25 10.5C7.25 8.42893 8.92893 6.75 11 6.75C13.0711 6.75 14.75 8.42893 14.75 10.5Z" fill="black"/>
</svg>
